- 
http://www.Speed.Cd 
       
http://www.Speed.Cd       the fast  and The Hottest Private Tracker on the net

(((--Registration will be open on june every weekend--)))

Please Seed back to make the speed Faster!!!

------------------nfo--------------------------
-[img]http://img814.imageshack.us/img814/3503/trust.jpg[/img]


[color=blue][size=5][b]Trust.2010.BDRip.XVID.AC3.HQ.Hive-CM8[/b][/size][/color]


[b]Thx Hive


CM8 Doing It Right The First Time :D


Source Bluray

Video: 720x304 @bitrate 1800 2pass
Audio: English TrueHD to AC3 5.1 @448
Sample: yes included[/b]


[url]http://www.imdb.com/title/tt1529572/[/url]


General
Complete name                    : Trust.2010.BDRip.XVID.AC3.HQ.Hive-CM8.avi
Format                           : AVI
Format/Info                      : Audio Video Interleave
File size                        : 1.71 GiB
Duration                         : 1h 45mn
Overall bit rate                 : 2 322 Kbps
Writing application              : Nandub v1.0rc2
Writing library                  : Nandub build 1853/release

Video
ID                               : 0
Format                           : MPEG-4 Visual
Format profile                   : Advanced Simple@L5
Format settings, BVOP            : 1
Format settings, QPel            : Yes
Format settings, GMC             : No warppoints
Format settings, Matrix          : Default (H.263)
Muxing mode                      : Packed bitstream
Codec ID                         : XVID
Codec ID/Hint                    : XviD
Duration                         : 1h 45mn
Bit rate                         : 1 865 Kbps
Width                            : 720 pixels
Height                           : 304 pixels
Display aspect ratio             : 2.40:1
Frame rate                       : 23.976 fps
Color space                      : YUV
Chroma subsampling               : 4:2:0
Bit depth                        : 8 bits
Scan type                        : Progressive
Compression mode                 : Lossy
Bits/(Pixel*Frame)               : 0.355
Stream size                      : 1.38 GiB (80%)
Writing library                  : XviD 1.2.1 (UTC 2008-12-04)

Audio
ID                               : 1
Format                           : AC-3
Format/Info                      : Audio Coding 3
Mode extension                   : CM (complete main)
Codec ID                         : 2000
Duration                         : 1h 45mn
Bit rate mode                    : Constant
Bit rate                         : 448 Kbps
Channel(s)                       : 6 channels
Channel positions                : Front: L C R, Side: L R, LFE
Sampling rate                    : 48.0 KHz
Bit depth                        : 16 bits
Compression mode                 : Lossy
Stream size                      : 338 MiB (19%)
Alignment                        : Split accross interleaves
Interleave, duration             : 42 ms (1.00 video frame)
Interleave, preload duration     : 500 ms


Clive Owen         ...  Will Cameron
Catherine Keener   ...  Lynn Cameron
Liana Liberato     ...  Annie Cameron
Viola Davis        ...  Gail
Jason Clarke       ...  Doug Tate
Chris Henry Coffey ...  Charlie / Graham Weston


Her suburban family is torn apart when fourteen-year-old
Annie is targeted by an online sexual predator.


[IMG]http://img801.imageshack.us/img801/6051/58829367.png[/IMG]
[img]http://img30.imageshack.us/img30/8720/ttrr.png[/img]
[img]http://img97.imageshack.us/img97/9355/trtrs.png[/img]
[img]http://img807.imageshack.us/img807/566/trttrr.png[/img]
[img]http://img840.imageshack.us/img840/4447/trtttrrr.png[/img]
[img]http://img21.imageshack.us/img21/6373/trtttrtrrr.png[/img]
[img]http://img851.imageshack.us/img851/8918/trtttrtrrtrr.png[/img]
[img]http://img718.imageshack.us/img718/520/trtttrtrrttrrr.png[/img]
[img]http://img839.imageshack.us/img839/63/89004200.png[/img]



Greetz

ViSiON,SANTi,MAGNET,THC,T0XiC,LKRG,IMAGiNE,WBZ,FLAWL3SS,NOVA
D2U,Vik,Rapeseed,SAFC,goldadvance,MEMORY100,KaN1vE,Unevano,
Pinnz,Wayne,Mr Hive and all P2P groups 
Great Work Guys :D

FYS

CM8@hushmail.com